<svg width="69" height="26" viewBox="0 0 69 26" fill="none" xmlns="http://www.w3.org/2000/svg"><path d="M64.1442 20.106L69 20.106L69 15.3029L64.1442 15.3029L64.1442 20.106ZM51.235 20.106L47.6133 5.585L52.3081 5.585L54.7226 16.0569L55.5274 16.0569L58.2102 5.585L62.9049 5.585L57.5395 25.4118L52.8447 25.4118L54.3202 20.106L51.235 20.106ZM39.9623 20.106L47.6081 20.106L47.6081 16.3361L44.523 16.3361L44.523 0.558497L39.9623 0.558497L39.9623 20.106ZM27.7559 20.106L23.1952 20.106L23.1952 5.585L27.7558 5.585L27.7559 7.53975L28.0241 7.53975C28.0241 7.53975 29.2314 5.16613 32.1824 5.16613C35.4016 5.16613 37.4137 7.2605 37.4137 11.17L37.4137 20.106L32.8531 20.106L32.8531 11.8681C32.8531 10.1926 31.9141 9.21525 30.4386 9.21525C28.9631 9.21525 27.7559 10.4719 27.7559 12.4266L27.7559 20.106ZM10.4627 20.6645C4.29238 20.6645 -6.57112e-07 15.9173 -4.26546e-07 10.3323C-1.95981e-07 4.74725 4.29238 -2.99484e-06 10.4627 -2.70926e-06C16.633 -2.42368e-06 20.9253 4.74725 20.9253 10.3323C20.9253 15.9173 16.633 20.6645 10.4627 20.6645ZM10.4627 4.74725C7.37753 4.74725 5.23134 6.98125 5.23134 10.3323C5.23134 13.6833 7.37752 15.9173 10.4627 15.9173C13.5478 15.9173 15.694 13.6833 15.694 10.3323C15.694 6.98125 13.5478 4.74725 10.4627 4.74725Z" fill="#232323"></path></svg>
